<svg version="1.1" id="Layer_1" xmlns="http://www.w3.org/2000/svg" xmlns:xlink="http://www.w3.org/1999/xlink" x="0px" y="0px" width="1066" height="600" style="width:100%" viewBox="0 0 1066 600">
        <rect x="0" y="0" width="1066" height="460" style="stroke-width:3; stroke:#ff0000;" fill="#ffffff" />
        <defs>

            <rect id="cabin" width="297" height="195" x="3" y="225" style="stroke-width:2; stroke:#aaaaaa;" fill="#ffffff" />

            <rect id="longPlank" width="4" height="120" fill="#000000" />

            <rect id="column" width="35" height="90" fill="#aaaaaa" />

            <rect id="HvlongPlank" width="4" height="312" fill="#000000" transform="rotate(270)" />
            <rect id="HlongPlank" width="4" height="282" fill="#000000" transform="rotate(270)" />
            <rect id="HshortPlank" width="4" height="156" fill="#000000" transform="rotate(270)" />
            <rect id="HtinyPlank" width="4" height="78" fill="#000000" transform="rotate(270)" />
            <rect id="HmanagerPlank" width="4" height="140" fill="#000000" transform="rotate(270)" />

            <rect id="shortPlank" width="4" height="55" fill="#000000" />

            <image id="snooker" xlink:href="snooker_table.svg" width="190" height="150" x="20" y="35" />

            <image id="door" xlink:href="architectural_door.svg" width="70" height="70" transform="rotate(180 35 35)" />
        </defs>

        <!-- Snooker Table -->
        <use xlink:href="#snooker" />
        <!-- Snooker Table -->

        <!-- Cabin -->
        <use xlink:href="#cabin" />
        <!-- Cabin -->

        <!-- Upper Cubicles -->
        <!-- A Cubicle Start-->
        <use xlink:href="#shortPlank" x="301" y="1" />
        <use xlink:href="#HlongPlank" x="301" y="5" />
        <use xlink:href="#shortPlank" x="442" y="1" />
        <use xlink:href="#shortPlank" x="583" y="1" />

        <use xlink:href="#shortPlank" x="301" y="86" />
        <use xlink:href="#HlongPlank" x="301" y="141" />
        <use xlink:href="#shortPlank" x="442" y="86" />
        <use xlink:href="#shortPlank" x="583" y="86" />
        <!-- A Cubicle End-->

        <!-- B Cubicle Start-->
        <use xlink:href="#shortPlank" x="680" y="1" />
        <use xlink:href="#HvlongPlank" x="684" y="5" />
        <use xlink:href="#shortPlank" x="840" y="1" />
        <use xlink:href="#shortPlank" x="996" y="1" />

        <use xlink:href="#shortPlank" x="680" y="86" />
        <use xlink:href="#HvlongPlank" x="684" y="141" />
        <use xlink:href="#shortPlank" x="840" y="86" />
        <use xlink:href="#shortPlank" x="996" y="86" />
        <!-- B Cubicle End-->
        <!-- Upper Cubicles -->

        <!-- Middle Cubicles -->
        <!-- A Cubicle Start-->
        <use xlink:href="#shortPlank" x="301" y="140" />
        <use xlink:href="#HlongPlank" x="301" y="144" />
        <use xlink:href="#shortPlank" x="442" y="140" />
        <use xlink:href="#shortPlank" x="583" y="140" />

        <use xlink:href="#shortPlank" x="301" y="225" />
        <use xlink:href="#HlongPlank" x="301" y="280" />
        <use xlink:href="#shortPlank" x="442" y="225" />
        <use xlink:href="#shortPlank" x="583" y="225" />
        <!-- A Cubicle End-->

        <!-- B Cubicle Start-->
        <use xlink:href="#shortPlank" x="680" y="140" />
        <use xlink:href="#HvlongPlank" x="684" y="144" />
        <use xlink:href="#shortPlank" x="840" y="140" />
        <use xlink:href="#shortPlank" x="996" y="140" />

        <use xlink:href="#shortPlank" x="680" y="225" />
        <use xlink:href="#HshortPlank" x="684" y="280" />
        <use xlink:href="#shortPlank" x="836" y="225" />
        <use xlink:href="#HtinyPlank" x="836" y="280" />

        <!-- B Cubicle End-->
        <!-- Middle Cubicles -->

        <!--Lower Cubicles-->
        <!-- A Cubicle Start-->
        <use xlink:href="#shortPlank" x="301" y="279" />
        <use xlink:href="#HlongPlank" x="301" y="284" />
        <use xlink:href="#shortPlank" x="442" y="279" />
        <use xlink:href="#shortPlank" x="583" y="279" />

        <use xlink:href="#shortPlank" x="301" y="366" />
        <use xlink:href="#HlongPlank" x="301" y="421" />
        <use xlink:href="#shortPlank" x="442" y="366" />
        <use xlink:href="#shortPlank" x="583" y="366" />
        <!-- A Cubicle End-->

        <use xlink:href="#column" x="587" y="366" />

        <!-- B Cubicle Start-->
        <use xlink:href="#shortPlank" x="680" y="279" />
        <use xlink:href="#HshortPlank" x="684" y="284" />
        <use xlink:href="#shortPlank" x="836" y="279" />
        <use xlink:href="#HtinyPlank" x="836" y="284" />

        <use xlink:href="#shortPlank" x="622" y="366" />
        <use xlink:href="#HlongPlank" x="625" y="421" />
        <use xlink:href="#shortPlank" x="752" y="366" />
        <use xlink:href="#shortPlank" x="882" y="366" />

        <use xlink:href="#HtinyPlank" x="907" y="421" />
        <use xlink:href="#shortPlank" x="985" y="366" />
        <!-- B Cubicle End-->
        <!--Lower Cubicles-->

        <!-- Delivery Manager Cubicle Start -->
        <use xlink:href="#shortPlank" x="925" y="279" />
        <use xlink:href="#shortPlank" x="925" y="225" />
        <use xlink:href="#HmanagerPlank" x="925" y="279"/>
        <use xlink:href="#HmanagerPlank" x="925" y="283"/>
        <!-- Delivery Manager Cubicle End -->

        <use xlink:href="#door" x="230" y="-5" />
        <use xlink:href="#door" x="613" y="-5" />
        <use xlink:href="#door" x="996" y="-5" />

    </svg>